<svg version="1.1" xmlns="http://www.w3.org/2000/svg" xmlns:xlink="http://www.w3.org/1999/xlink" width="512.000000pt" height="512.000000pt" viewBox="0,0,256,256"><g fill="#2563eb" fill-rule="nonzero" stroke="none" stroke-width="1" stroke-linecap="butt" stroke-linejoin="miter" stroke-miterlimit="10" stroke-dasharray="" stroke-dashoffset="0" font-family="none" font-weight="none" font-size="none" text-anchor="none" style="mix-blend-mode: normal"><g transform="translate(0.02824,0.02856) scale(0.5,0.5)"><g transform="translate(0,512) scale(0.1,-0.1)"><path d="M2335,5104c-454,-60 -856,-257 -1168,-570c-373,-374 -577,-868 -577,-1394c0,-794 464,-1688 1340,-2584c253,-259 566,-540 615,-552c32,-8 66,13 175,106c899,772 1532,1664 1735,2445c50,195 67,310 72,518c7,227 -5,352 -47,527c-124,507 -442,949 -878,1220c-378,234 -850,340 -1267,284zM2705,3815c39,-8 113,-36 165,-61c158,-78 290,-231 341,-394c113,-365 -71,-736 -430,-864c-80,-29 -96,-31 -221,-31c-125,0 -141,2 -221,31c-359,128 -543,499 -430,864c30,96 87,185 171,271c126,127 293,197 475,198c44,0 112,-6 150,-14z"></path></g></g></g></svg>